<?xml version="1.0" encoding="UTF-8"?>
<svg version="1.1" xmlns="http://www.w3.org/2000/svg" width="435" height="613">
<path d="M0 0 C50.82 0 101.64 0 154 0 C154 49.17 154 98.34 154 149 C204.16 149 254.32 149 306 149 C306 200.48 306 251.96 306 305 C257.49 305 208.98 305 159 305 C158.12895392 309.35523039 157.85191112 313.26276405 157.85473633 317.6574707 C157.85137772 318.4127858 157.8480191 319.16810089 157.84455872 319.94630432 C157.83507583 322.43948016 157.83310609 324.93258849 157.83203125 327.42578125 C157.82881382 329.17392504 157.82544938 330.92206856 157.82194519 332.67021179 C157.81595841 336.33947369 157.81410453 340.00871208 157.81469727 343.67797852 C157.81479817 348.33633094 157.80121853 352.99452847 157.78392506 357.65284443 C157.77269172 361.26926843 157.77078159 364.88565653 157.77130699 368.50209618 C157.77014107 370.21656001 157.76579916 371.9310252 157.75797462 373.64547157 C157.66523453 396.08942155 160.14546336 415.32122485 173.25 434.25 C187.33881759 448.33881759 205.49816392 454.06735077 225.05639648 454.20532227 C225.94933694 454.21535499 226.84227739 454.22538771 227.76227665 454.23572445 C230.6318566 454.26692434 233.50145047 454.2918037 236.37109375 454.31640625 C238.15108674 454.33482679 239.93107547 454.35366437 241.71105957 454.3729248 C248.28648927 454.44116426 254.86200055 454.50135011 261.4375 454.5625 C276.143125 454.706875 290.84875 454.85125 306 455 C306 507.14 306 559.28 306 613 C171.86935079 613 171.86935079 613 123.90332031 587.02978516 C121.95253123 585.97431718 119.98853481 584.946507 118.0234375 583.91796875 C107.94455462 578.54012118 98.97152614 572.05076057 90 565 C92.7785352 559.86776844 95.69317703 554.87181365 98.8125 549.9375 C124.34385272 508.52103873 131.86560913 458.67716244 121.08349609 411.32275391 C115.38631912 387.52866184 105.64586448 364.70481449 91 345 C90.60586914 344.44940918 90.21173828 343.89881836 89.80566406 343.33154297 C78.45646523 327.50433503 64.05880118 313.03152122 48 302 C46.93136719 301.26007813 45.86273438 300.52015625 44.76171875 299.7578125 C38.25735591 295.36883595 31.4796142 291.51056549 24.5625 287.8125 C23.83659668 287.420625 23.11069336 287.02875 22.36279297 286.625 C17.41853426 284.03993621 12.36278201 281.89358369 7.17944336 279.84643555 C6.48715385 279.57134911 5.79486435 279.29626266 5.08159637 279.01284027 C3.38836779 278.34028789 1.6942717 277.66992025 0 277 C-0.13202052 249.67388159 -0.26246422 222.34775602 -0.39115143 195.0216217 C-0.45097025 182.32674818 -0.51125934 169.63187725 -0.57275391 156.93701172 C-0.62650201 145.84104812 -0.67926775 134.74508031 -0.73096704 123.64910698 C-0.75824076 117.80220064 -0.78592887 111.9552971 -0.81480408 106.10839844 C-0.88468094 91.90924154 -0.94513735 77.71008845 -0.98909378 63.51082611 C-0.99663687 61.08262807 -1.00445454 58.65443088 -1.01249313 56.22623444 C-1.038051 48.39414432 -1.05757525 40.56207511 -1.06938839 32.72995186 C-1.07388113 30.2207764 -1.08006681 27.71160335 -1.08801365 25.20243645 C-1.09858309 21.72812636 -1.1027894 18.25386497 -1.10534668 14.77954102 C-1.10981151 13.74347025 -1.11427633 12.70739948 -1.11887646 11.63993263 C-1.11825616 10.68779066 -1.11763586 9.73564869 -1.11699677 8.75465393 C-1.11855758 7.92837274 -1.1201184 7.10209154 -1.12172651 6.25077152 C-1 4 -1 4 0 0 Z " fill="#F3F3F4" transform="translate(129,0)"/>
<path d="M0 0 C3.54736693 2.8050181 6.79822759 5.80891799 10 9 C10.69996094 9.67675781 11.39992188 10.35351562 12.12109375 11.05078125 C20.76302945 19.99594276 26.70611901 31.7989261 29 44 C29.12890625 44.68191406 29.2578125 45.36382812 29.390625 46.06640625 C29.69507808 48.04935725 29.8748636 49.99781756 30 52 C30.07927734 53.175625 30.07927734 53.175625 30.16015625 54.375 C30.86980581 75.10910892 23.02513915 92.78197401 9.15234375 107.90625 C-4.37310319 121.06349058 -22.92132196 127.42499449 -41.5546875 127.21484375 C-52.35911693 126.54109815 -62.48332178 124.27900843 -72 119 C-72.88945313 118.51917969 -73.77890625 118.03835938 -74.6953125 117.54296875 C-91.03198874 107.97833351 -101.78274206 93.12776065 -107 75 C-110.43017699 59.91995508 -109.16455253 43.13256458 -103 29 C-102.5771875 28.01257813 -102.154375 27.02515625 -101.71875 26.0078125 C-93.35593985 8.84460329 -77.48876173 -2.11718857 -60.27734375 -9.10546875 C-40.55168243 -15.29334189 -16.96169382 -11.59706508 0 0 Z " fill="#D1D2D4" transform="translate(108,396)"/>
</svg>
