<?xml version="1.0" encoding="UTF-8"?>
<svg version="1.1" xmlns="http://www.w3.org/2000/svg" width="497" height="613">
<path d="M0 0 C50.82 0 101.64 0 154 0 C154 49.17 154 98.34 154 149 C204.16 149 254.32 149 306 149 C306 200.48 306 251.96 306 305 C257.49 305 208.98 305 159 305 C157.97507222 309.09971111 157.84507242 312.80314396 157.83886719 316.98706055 C157.83390228 317.78939117 157.82893738 318.5917218 157.82382202 319.41836548 C157.80921582 322.07449204 157.80239624 324.7305586 157.796875 327.38671875 C157.79404762 328.2995997 157.79122025 329.21248066 157.78830719 330.15302467 C157.77331027 334.99663202 157.76408769 339.84020962 157.75976562 344.68383789 C157.7543214 349.64372891 157.73038158 354.60333976 157.70179367 359.56314373 C157.68297747 363.41122673 157.67795143 367.2592453 157.67642975 371.10737038 C157.67343849 372.93266115 157.6655324 374.75795178 157.65224457 376.58319664 C157.51596223 396.76615248 159.58291274 415.31036658 172 432 C172.7425 433.03125 173.485 434.0625 174.25 435.125 C185.95467107 447.36170158 203.50707176 453.75767103 220.25852966 454.15821838 C221.85776527 454.17864221 223.45707027 454.19403999 225.05639648 454.20532227 C225.94933694 454.21535499 226.84227739 454.22538771 227.76227665 454.23572445 C230.6318566 454.26692434 233.50145047 454.2918037 236.37109375 454.31640625 C238.15108674 454.33482679 239.93107547 454.35366437 241.71105957 454.3729248 C248.28648927 454.44116426 254.86200055 454.50135011 261.4375 454.5625 C276.143125 454.706875 290.84875 454.85125 306 455 C306 507.14 306 559.28 306 613 C138.46534653 613 138.46534653 613 91 566 C91 561.16589061 92.16548781 559.87051164 94.875 555.9375 C108.18965991 535.92281783 116.70357936 514.38382144 122 491 C122.2477417 489.96794434 122.2477417 489.96794434 122.50048828 488.91503906 C132.74901952 444.80502146 121.81418557 395.66405639 99.09375 357.30078125 C95.31449492 351.34281382 91.25290411 345.62758019 87 340 C86.31550781 339.08863281 85.63101563 338.17726563 84.92578125 337.23828125 C70.4372515 318.77575477 52.38727268 303.55114239 32 292 C31.13906738 291.50790039 31.13906738 291.50790039 30.26074219 291.00585938 C23.03953696 286.90744339 15.71705898 283.36051731 8.015625 280.25390625 C7.23977051 279.93780396 6.46391602 279.62170166 5.66455078 279.29602051 C3.77757395 278.52770983 1.88895868 277.76342514 0 277 C-1.15735248 222.80351962 -1.15598809 168.6096074 -1.12856841 114.40303302 C-1.12418369 104.69640316 -1.12736301 94.98978607 -1.1321975 85.28315699 C-1.13672389 75.81096349 -1.13738445 66.33877555 -1.13475883 56.86658132 C-1.13320591 51.25651645 -1.13297718 45.64646033 -1.13629532 40.03639603 C-1.13917028 34.82030666 -1.13720551 29.6042417 -1.13140106 24.38815498 C-1.13007567 22.47686745 -1.13046386 20.56557788 -1.13266373 18.65429115 C-1.13538132 16.05543886 -1.13198779 13.4566658 -1.12698364 10.8578186 C-1.12921436 10.09768672 -1.13144509 9.33755483 -1.13374341 8.55438864 C-1.12199635 5.42851668 -0.99641519 2.98924557 0 0 Z " fill="#F3F3F4" transform="translate(191,0)"/>
<path d="M0 0 C22.79764849 18.36495783 38.14676681 43.13882007 45.66748047 71.34326172 C46.14894531 73.06416016 46.14894531 73.06416016 46.64013672 74.81982422 C51.37235844 95.02531045 50.28316839 118.46455706 44.66748047 138.34326172 C44.48556152 139.01164063 44.30364258 139.68001953 44.11621094 140.36865234 C38.34670041 161.05433261 26.81604344 178.46091115 12.66748047 194.34326172 C12.07322266 195.01099609 11.47896484 195.67873047 10.86669922 196.36669922 C-11.82395566 220.35235426 -45.79720916 233.25442076 -78.33251953 234.34326172 C-109.48515985 234.8079664 -141.79020151 225.39432915 -165.33251953 204.34326172 C-166.13560547 203.65876953 -166.93869141 202.97427734 -167.76611328 202.26904297 C-186.00173267 186.42311473 -198.81232322 167.21324538 -206.64501953 144.34326172 C-206.87535889 143.68100586 -207.10569824 143.01875 -207.34301758 142.33642578 C-211.50630137 129.47226083 -212.89606815 116.53713463 -212.77001953 103.09326172 C-212.76446045 102.01908997 -212.76446045 102.01908997 -212.75878906 100.92321777 C-212.49339434 64.71895468 -198.11739699 32.80582821 -172.33251953 7.34326172 C-125.64334427 -37.33033703 -50.50354477 -39.53284774 0 0 Z " fill="#C5C6C8" transform="translate(212.33251953125,350.65673828125)"/>
</svg>
